<svg id="Layer_1" data-name="Layer 1" xmlns="http://www.w3.org/2000/svg" viewBox="0 0 285.98 67.36"><title>logo Droptica biale</title><path d="M154.28,102.29V62.56H168q9.23,0,14,5.06t4.77,14.83q0,9.71-4.76,14.77t-14,5.06H154.28Zm7.15-6.43H168q6.19,0,8.91-3.14t2.72-10.27q0-7.19-2.72-10.33T168,69h-6.54V95.85h0Z" transform="translate(-74.64 -49.07)" fill="#fff"/><path d="M191.27,102.29V75.21q0.73-.35,2-0.82A49.45,49.45,0,0,1,198.42,73a37.21,37.21,0,0,1,7.68-.94v6.14a29,29,0,0,0-7.68,1V102.3h-7.15Z" transform="translate(-74.64 -49.07)" fill="#fff"/><path d="M211.7,98.77q-3.64-4-3.63-11.34t3.63-11.31q3.64-4,10.43-4t10.43,4q3.63,4,3.63,11.34t-3.6,11.31q-3.64,4-10.43,4T211.7,98.77Zm5.22-18.82q-1.7,2-1.7,7.49t1.7,7.47a6.59,6.59,0,0,0,5.22,1.93q3.52,0,5.21-1.93T229,87.44q0-5.54-1.69-7.49T222.14,78a6.57,6.57,0,0,0-5.19,2Z" transform="translate(-74.64 -49.07)" fill="#fff"/><path d="M240.7,113.31V82.16a9.45,9.45,0,0,1,3.07-7.05q3.07-3,9.44-3a18.66,18.66,0,0,1,2.94.23,12.36,12.36,0,0,1,3.45,1.22,11.36,11.36,0,0,1,3.4,2.56,13.32,13.32,0,0,1,2.46,4.61,21.63,21.63,0,0,1,1,7q0,7.3-3.56,11.21t-10.19,3.91a22.5,22.5,0,0,1-4.89-.53v10.91H240.7v0.08ZM247.85,97a31.83,31.83,0,0,0,4.39.35,6.73,6.73,0,0,0,5.28-2q1.82-2,1.82-7.14T258,80.64q-1.37-2.33-4.77-2.33-5.35,0-5.35,3.2V97Z" transform="translate(-74.64 -49.07)" fill="#fff"/><path d="M269.41,78.7V72.57h5v-8.8h7.15v8.81h7v6.14h-7V93.38a3.29,3.29,0,0,0,.8,2.59,4.52,4.52,0,0,0,2.84.67,8.52,8.52,0,0,0,3.4-.64v5.9a11.75,11.75,0,0,1-4.57.87H283.9a9.21,9.21,0,0,1-7-2.62,9.94,9.94,0,0,1-2.53-7.21V78.7h-5Z" transform="translate(-74.64 -49.07)" fill="#fff"/><path d="M294.7,68.53V62H302v6.54H294.7Zm0.12,33.76V72.57H302v29.72h-7.15Z" transform="translate(-74.64 -49.07)" fill="#fff"/><path d="M308.45,87.43q0-7.43,3.63-11.38t10.41-3.95a22.91,22.91,0,0,1,8.58,1.69v5.87a19.51,19.51,0,0,0-7.39-1.42q-4.1,0-6.09,1.88t-2,7.31q0,5.37,2,7.28t6.09,1.91a19.68,19.68,0,0,0,7.39-1.48V101a22.25,22.25,0,0,1-8.57,1.75q-6.78,0-10.41-4T308.45,87.43Z" transform="translate(-74.64 -49.07)" fill="#fff"/><path d="M335.34,92.58a10.1,10.1,0,0,1,.18-1.85,8.93,8.93,0,0,1,.92-2.37,8.2,8.2,0,0,1,2-2.5,11,11,0,0,1,3.8-1.85,20.36,20.36,0,0,1,5.94-.77,36.19,36.19,0,0,1,5.22.41q0-5.67-6.29-5.67a23.05,23.05,0,0,0-8.73,1.51V73.62a26.35,26.35,0,0,1,9.14-1.51q6.36,0,9.73,3.24t3.37,9.38v8a9.45,9.45,0,0,1-3.07,7.05q-3.06,3-9.43,3-6.58,0-9.7-3A9.59,9.59,0,0,1,335.34,92.58Zm7.15-.9q0,4.77,5.6,4.77h0.06q5.34,0,5.34-4.51V88.19a35.61,35.61,0,0,0-4.26-.38q-6.7,0-6.73,3.86h0Z" transform="translate(-74.64 -49.07)" fill="#fff"/><path d="M121.7,55.19c-0.29-.26-0.6-0.5-0.9-0.74V54h-0.52a21.59,21.59,0,0,0-7.58-3.68,48,48,0,0,0-11.89-1.29H83q-4.41,0-6.38,2t-2,6.38v49.31a20.22,20.22,0,0,0,.57,5.3,5.24,5.24,0,0,0,2.48,3.21,11.12,11.12,0,0,0,5.6,1.13h17.77a52.78,52.78,0,0,0,8.33-.6,26.76,26.76,0,0,0,6.91-2.07,23.33,23.33,0,0,0,5.92-3.9,28,28,0,0,0,5.65-7.19,32.71,32.71,0,0,0,3.26-9,53.66,53.66,0,0,0,1.06-11.07Q132.21,64.2,121.7,55.19Zm-10.14,39.5a14.82,14.82,0,0,1-9.84,3.49,14.22,14.22,0,0,1-10.86-4.85,14.74,14.74,0,0,1-3.65-9.56,14.14,14.14,0,0,1,7.95-12.83,14.35,14.35,0,0,0,4.54-3.07,4.77,4.77,0,0,0,.88-2.79c1.58,1.89,2.87,3.65,4.21,4.42,1.88,1.08,4.82,1.07,8.52,5.58a13.54,13.54,0,0,1,2.9,8.73,13.89,13.89,0,0,1-4.65,10.89h0Z" transform="translate(-74.64 -49.07)" fill="#fff"/><circle cx="27.06" cy="34.4" r="7.44" fill="#fff"/><circle cx="27.06" cy="34.4" r="2.43" fill="#fff"/></svg>